<svg width="641" height="294" viewBox="0 0 641 294" fill="none" xmlns="http://www.w3.org/2000/svg">
<path fill-rule="evenodd" clip-rule="evenodd" d="M641 20C641 8.95431 632.046 0 621 0H20C8.9543 0 0 8.95431 0 20V34C0 45.0457 8.9543 54 20 54H59C70.0457 54 79 62.9543 79 74V82C79 93.0457 87.9543 102 99 102H210C221.046 102 230 110.954 230 122V136C230 147.046 221.046 156 210 156H58C46.9543 156 38 164.954 38 176V190C38 200.493 29.4934 209 19 209C8.50659 209 0 217.507 0 228V274C0 285.046 8.9543 294 20 294H621C632.046 294 641 285.046 641 274V20Z" fill="#D96060"/>
</svg>
